<?xml version="1.0" ?><svg data-name="Layer 1" id="Layer_1" viewBox="0 0 120 120" xmlns="http://www.w3.org/2000/svg"><defs><style>.cls-1,.cls-2{fill:none;stroke:#231f20;stroke-width:2px;}.cls-1{stroke-linecap:round;stroke-linejoin:round;}.cls-2{stroke-miterlimit:10;}</style></defs><title/><rect class="cls-1" height="40.32" width="62.55" x="28.72" y="36.01"/><line class="cls-1" x1="45.42" x2="74.58" y1="83.99" y2="83.99"/><line class="cls-1" x1="60" x2="60" y1="76.33" y2="83.99"/><circle class="cls-2" cx="60" cy="60" r="56.64"/><line class="cls-1" x1="41.04" x2="41.04" y1="65.83" y2="46.51"/><line class="cls-1" x1="55.04" x2="55.04" y1="65.83" y2="46.51"/><line class="cls-1" x1="41.04" x2="55.04" y1="56.17" y2="56.17"/><path class="cls-1" d="M62.4,46.51h7.14A9.42,9.42,0,0,1,79,55.93v.48a9.42,9.42,0,0,1-9.42,9.42H62.4a0,0,0,0,1,0,0V46.51A0,0,0,0,1,62.4,46.51Z"/></svg>