<?xml version="1.0" ?><svg data-name="Layer 1" id="Layer_1" viewBox="0 0 120 120" xmlns="http://www.w3.org/2000/svg"><defs><style>.cls-1,.cls-2{fill:none;stroke:#231f20;stroke-width:2px;}.cls-1{stroke-miterlimit:10;}.cls-2{stroke-linecap:round;stroke-linejoin:round;}</style></defs><title/><circle class="cls-1" cx="60" cy="60" r="56.64"/><path class="cls-2" d="M47.24,35.4h3.68a16.9,16.9,0,0,1,8.52,3.69.75.75,0,0,0,1.11,0,17,17,0,0,1,8.53-3.68h3.68A18.16,18.16,0,0,1,79.7,38,16.56,16.56,0,0,1,87,49.42V54c-.81,4.31-3.15,7.67-6.26,10.69-6.31,6.13-12.48,12.42-18.7,18.64a6.87,6.87,0,0,1-1.49,1.25H59.43a6.92,6.92,0,0,1-1.57-1.33c-6.33-6.33-12.61-12.71-19-19A18.72,18.72,0,0,1,33,53.79v-4.6a17.85,17.85,0,0,1,4.09-8.47A17.11,17.11,0,0,1,47.24,35.4Z"/></svg>