<?xml version="1.0" ?><svg data-name="Layer 1" id="Layer_1" viewBox="0 0 120 120" xmlns="http://www.w3.org/2000/svg"><defs><style>.cls-1{fill:none;stroke:#231f20;stroke-linecap:round;stroke-linejoin:round;stroke-width:2px;}</style></defs><title/><circle class="cls-1" cx="60" cy="60" r="56.64"/><rect class="cls-1" height="30.48" rx="3.78" width="43.43" x="38.28" y="55.83"/><path class="cls-1" d="M60,33.69h0A13.76,13.76,0,0,1,73.76,47.45v8.38a0,0,0,0,1,0,0H46.24a0,0,0,0,1,0,0V47.45A13.76,13.76,0,0,1,60,33.69Z"/><path class="cls-1" d="M63.8,67.79A3.81,3.81,0,0,1,62,71.34v4.49a2,2,0,0,1-2,2h0a2,2,0,0,1-2-2V71.34a3.81,3.81,0,1,1,5.81-3.55Z"/></svg>