<?xml version="1.0" ?><svg data-name="Layer 1" id="Layer_1" viewBox="0 0 120 120" xmlns="http://www.w3.org/2000/svg"><defs><style>.cls-1,.cls-2{fill:none;stroke:#231f20;stroke-width:2px;}.cls-1{stroke-linecap:round;stroke-linejoin:round;}.cls-2{stroke-miterlimit:10;}</style></defs><title/><path class="cls-1" d="M29.25,39.63H42.91a0,0,0,0,1,0,0V80.37a0,0,0,0,1,0,0H29.25A7.27,7.27,0,0,1,22,73.1V46.9A7.27,7.27,0,0,1,29.25,39.63Z"/><polygon class="cls-1" points="63.85 92.16 42.91 80.37 42.91 39.63 63.85 27.84 63.85 92.16"/><path class="cls-1" d="M68.36,43.77a16.23,16.23,0,0,1,0,32.46"/><path class="cls-1" d="M68.36,82.54a22.54,22.54,0,1,0,0-45.08"/><path class="cls-1" d="M68.36,49a11,11,0,0,1,0,21.92"/><path class="cls-1" d="M68.36,54.81a5.19,5.19,0,1,1,0,10.38"/><circle class="cls-2" cx="60" cy="60" r="56.64"/></svg>