<?xml version="1.0" ?><svg data-name="Layer 1" id="Layer_1" viewBox="0 0 120 120" xmlns="http://www.w3.org/2000/svg"><defs><style>.cls-1,.cls-2{fill:none;stroke:#231f20;stroke-width:2px;}.cls-1{stroke-linecap:round;stroke-linejoin:round;}.cls-2{stroke-miterlimit:10;}</style></defs><title/><path class="cls-1" d="M62.08,36.69l6.16,12.48A2.31,2.31,0,0,0,70,50.44l13.78,2a2.33,2.33,0,0,1,1.29,4l-10,9.72a2.29,2.29,0,0,0-.67,2l2.35,13.72a2.31,2.31,0,0,1-3.36,2.44L61.08,77.85a2.35,2.35,0,0,0-2.16,0L46.6,84.33a2.31,2.31,0,0,1-3.36-2.44l2.35-13.72a2.29,2.29,0,0,0-.67-2L35,56.4a2.33,2.33,0,0,1,1.29-4l13.78-2a2.31,2.31,0,0,0,1.74-1.27l6.16-12.48A2.32,2.32,0,0,1,62.08,36.69Z"/><circle class="cls-2" cx="60" cy="60" r="56.64"/></svg>