<?xml version="1.0" ?><svg data-name="Layer 1" id="Layer_1" viewBox="0 0 120 120" xmlns="http://www.w3.org/2000/svg"><defs><style>.cls-1,.cls-2{fill:none;stroke:#231f20;stroke-width:2px;}.cls-1{stroke-linecap:round;stroke-linejoin:round;}.cls-2{stroke-miterlimit:10;}</style></defs><title/><path class="cls-1" d="M38.6,39.63H52.26a0,0,0,0,1,0,0V80.37a0,0,0,0,1,0,0H38.6a7.27,7.27,0,0,1-7.27-7.27V46.9A7.27,7.27,0,0,1,38.6,39.63Z"/><polygon class="cls-1" points="73.2 92.16 52.27 80.37 52.27 39.63 73.2 27.84 73.2 92.16"/><path class="cls-1" d="M77.72,49a11,11,0,0,1,0,21.92"/><path class="cls-1" d="M77.72,54.81a5.19,5.19,0,0,1,0,10.38"/><circle class="cls-2" cx="60" cy="60" r="56.64"/></svg>